<?xml version="1.0" encoding="UTF-8"?>
<svg id="Layer_1" data-name="Layer 1" xmlns="http://www.w3.org/2000/svg" viewBox="0 0 89.01 32.31">
  <defs>
    <style>
      .cls-1 {
        fill: #fff;
        stroke: #fff;
        stroke-width: .25px;
      }

      .cls-2 {
        fill: #326ce5;
      }
    </style>
  </defs>
  <g id="layer1">
    <g id="g3052">
      <path id="path3055" class="cls-2" d="M44.4,2.25c-.25.01-.5.08-.73.18l-9.97,4.76c-.52.25-.9.72-1.03,1.28l-2.46,10.7c-.11.5-.02,1.02.26,1.45.03.05.07.1.11.15l6.9,8.58c.36.45.91.71,1.49.71h11.07c.58,0,1.13-.26,1.49-.71l6.9-8.58c.36-.45.5-1.04.37-1.6l-2.46-10.7c-.13-.56-.51-1.03-1.03-1.28l-9.97-4.76c-.29-.14-.61-.2-.92-.18Z"/>
      <path id="path3059" class="cls-1" d="M44.5,5.89c-.33,0-.6.3-.6.66,0,0,0,.01,0,.02,0,.05,0,.11,0,.15,0,.21.05.37.08.57.05.42.09.76.07,1.08-.03.12-.11.23-.19.31v.25c-.37.03-.73.08-1.09.17-1.55.35-2.88,1.15-3.9,2.23-.07-.04-.18-.13-.22-.15-.11.01-.21.05-.35-.03-.27-.18-.51-.43-.8-.73-.13-.14-.23-.28-.39-.42-.04-.03-.09-.07-.13-.11-.13-.1-.27-.15-.42-.16-.18,0-.36.07-.48.21-.21.26-.14.65.15.88,0,0,0,0,0,0,.04.03.09.07.12.1.17.13.33.19.49.29.36.22.65.4.89.62.09.1.11.27.12.34l.19.17c-1.02,1.54-1.5,3.44-1.22,5.38l-.25.07c-.07.09-.16.22-.26.26-.31.1-.65.13-1.07.18-.2.02-.36,0-.57.05-.05,0-.11.03-.16.04,0,0,0,0,0,0,0,0,0,0,0,0-.35.08-.58.41-.5.73.07.32.42.51.77.44,0,0,0,0,0,0,0,0,0,0,.01,0,.05-.01.11-.02.15-.03.2-.05.35-.13.54-.21.39-.14.72-.26,1.04-.31.13-.01.27.08.34.12l.26-.04c.6,1.86,1.85,3.36,3.44,4.3l-.11.26c.04.1.08.24.05.34-.12.3-.31.62-.54.97-.11.16-.22.29-.32.48-.02.04-.05.11-.08.16-.15.33-.04.71.25.85.3.14.66,0,.82-.34,0,0,0,0,0,0,0,0,0,0,0,0,.02-.05.05-.11.07-.15.08-.19.11-.36.17-.55.16-.4.24-.81.46-1.07.06-.07.16-.1.26-.13l.14-.24c1.38.53,2.93.67,4.48.32.35-.08.69-.18,1.02-.31.04.07.11.2.13.23.1.03.21.05.3.18.16.28.27.61.41,1,.06.19.09.35.17.55.02.04.05.11.07.15.16.33.53.48.82.34.29-.14.41-.52.25-.85-.02-.05-.05-.12-.08-.16-.1-.19-.21-.31-.32-.48-.23-.35-.41-.65-.53-.95-.05-.15,0-.25.05-.35-.02-.03-.07-.17-.1-.24,1.65-.97,2.87-2.53,3.44-4.33.08.01.21.04.25.04.09-.06.17-.14.33-.12.32.05.65.16,1.04.31.18.07.33.15.54.21.04.01.1.02.15.03,0,0,0,0,.01,0,0,0,0,0,0,0,.35.08.7-.12.77-.44.07-.32-.15-.64-.5-.73-.05-.01-.12-.03-.17-.04-.21-.04-.38-.03-.57-.05-.42-.04-.76-.08-1.07-.18-.13-.05-.21-.2-.26-.26l-.24-.07c.12-.9.09-1.84-.12-2.79-.22-.95-.6-1.82-1.12-2.58.06-.06.18-.16.21-.19,0-.11,0-.22.11-.34.23-.22.53-.4.89-.62.17-.1.33-.16.5-.29.04-.03.09-.07.13-.11.29-.23.35-.62.15-.88s-.6-.28-.89-.05c-.04.03-.1.07-.13.11-.16.14-.26.27-.39.42-.29.3-.54.55-.8.73-.12.07-.29.04-.36.04l-.23.16c-1.29-1.36-3.06-2.22-4.95-2.39,0-.08-.01-.22-.01-.27-.08-.07-.17-.14-.2-.3-.03-.32.02-.67.07-1.08.03-.19.07-.36.08-.57,0-.05,0-.12,0-.17,0-.37-.27-.66-.6-.66h0ZM43.76,10.52l-.18,3.13h-.01c-.01.29-.24.51-.53.51-.12,0-.22-.04-.31-.1h0s-2.57-1.82-2.57-1.82c.79-.78,1.8-1.35,2.96-1.61.21-.05.42-.08.64-.11ZM45.25,10.52c1.36.17,2.61.78,3.57,1.72l-2.55,1.81h0c-.23.16-.55.12-.72-.1-.07-.09-.11-.2-.11-.3h0s-.18-3.13-.18-3.13ZM39.23,13.41l2.34,2.1h0c.21.2.24.52.07.74-.07.09-.17.15-.27.18h0s-3,.88-3,.88c-.15-1.4.18-2.76.87-3.89ZM49.76,13.41c.35.56.61,1.19.77,1.88.16.68.19,1.35.13,2l-3.02-.87h0c-.27-.09-.44-.36-.37-.64.03-.11.09-.21.17-.28h0s2.33-2.09,2.33-2.09h0ZM44.02,15.67h.96l.6.75-.21.93-.86.41-.86-.42-.21-.93.6-.74ZM47.1,18.22s.08,0,.12,0h0s3.11.52,3.11.52c-.45,1.28-1.32,2.38-2.49,3.12l-1.21-2.91h0c-.11-.26,0-.56.25-.69.07-.03.13-.05.2-.05h0ZM41.88,18.23c.24,0,.45.17.5.41.03.11.01.22-.03.32h0s-1.19,2.9-1.19,2.9c-1.12-.72-2-1.79-2.48-3.1l3.08-.52h0s.07,0,.1,0h0ZM44.48,19.5c.08,0,.17.01.25.05.1.05.19.13.24.22h.01l1.52,2.74c-.2.07-.4.12-.61.17-1.16.26-2.32.18-3.37-.17l1.51-2.74h0c.09-.17.26-.27.44-.28Z"/>
    </g>
  </g>
</svg>